<?xml version="1.0" encoding="utf-8"?>
<!-- Generator: Adobe Illustrator 27.2.0, SVG Export Plug-In . SVG Version: 6.00 Build 0)  -->
<svg version="1.1" id="Layer_1" xmlns="http://www.w3.org/2000/svg" xmlns:xlink="http://www.w3.org/1999/xlink" x="0px" y="0px"
	 viewBox="0 0 64 64" style="enable-background:new 0 0 64 64;" xml:space="preserve">
<style type="text/css">
	.st0{fill:#C29F00;}
</style>
<g id="Page-1">
	<g id="Artboard" transform="translate(-479.000000, -325.000000)">
		
			<g id="logo-no-text-small-shield-layers" transform="translate(557.000000, 414.000000) scale(-1, 1) rotate(-180.000000) translate(-557.000000, -414.000000) translate(479.000000, 325.000000)">
			
				<g id="Shield" transform="translate(78.000000, 89.000000) rotate(-360.000000) translate(-78.000000, -89.000000) translate(-0.000000, -0.000000)">
				<g id="shield-background" transform="translate(3.668327, 3.787259)">
					<path id="path112" d="M55.4,160.2C55.4,160.2,55.4,160.3,55.4,160.2c0,2.3,0.1,4.5,0.1,6.8c0,0.3-0.1,0.5-0.4,0.6
						c-1.7,0.7-3.3,1.5-5.1,2.2c-6.8,2.5-13.9,3.6-21.2,3.6c-2.3,0-4.7-0.1-7-0.3c-4.4-0.4-8.7-1.2-12.9-2.6
						c-2.5-0.8-4.9-1.8-7.3-2.9c-0.2-0.1-0.3-0.1-0.3-0.4c0-4.1,0-8.2,0-12.3c0.1-4.3,0.8-8.5,1.9-12.6c1.9-7,5.1-13.3,9.8-18.8
						c4.2-5,9.3-8.8,15.1-11.8c0.1-0.1,0.3,0,0.4,0c1.1,0.6,2.1,1.2,3.2,1.8c7.5,4.6,13.5,10.7,17.6,18.7c3.5,6.8,5.5,13.9,5.9,21.6
						C55.5,155.8,55.4,158,55.4,160.2"/>
				</g>
				<g id="single-thick-shield-ring" transform="translate(0.687195, 0.803652)">
					<path id="path180" class="st0" d="M4.8,169.8c0-1.4,0-2.8,0-4.2v0c0-2.6,0-5.3,0-7.9c0.1-4,0.7-8.1,1.9-12.5
						c2-7.1,5.2-13.4,9.6-18.7c3.8-4.6,8.6-8.4,14.7-11.6l0.1,0c1,0.5,2,1.1,2.9,1.7c7.6,4.6,13.5,10.8,17.4,18.4
						c3.5,6.7,5.4,13.9,5.8,21.4c0.1,1.5,0.1,3,0,4.5c0,0.7,0,1.4,0,2.1h0v0.1h0c0,1.3,0,2.6,0,3.8c0,1,0,1.9,0,2.9
						c-0.5,0.3-1.1,0.5-1.6,0.7c-1.1,0.5-2.2,1-3.3,1.4c-6.4,2.4-13.3,3.5-21,3.6h-0.3c-2.4,0-4.7-0.2-6.6-0.3
						c-4.2-0.4-8.5-1.2-12.7-2.5C9.4,171.9,7,170.9,4.8,169.8 M31.1,113.4c-0.2,0-0.4,0-0.6,0.1c-6.3,3.3-11.3,7.3-15.3,12.1
						c-4.5,5.4-7.9,11.9-9.9,19.2c-1.3,4.5-1.9,8.7-2,12.8c0,2.7,0,5.4,0,8v0c0,1.5,0,2.9,0,4.3c0,0.7,0.5,0.9,0.7,1l0,0
						c2.3,1.2,4.7,2.2,7.4,3c4.3,1.4,8.7,2.2,13,2.6c2,0.2,4.3,0.3,6.8,0.3h0.3c7.8,0,14.9-1.3,21.5-3.7c1.2-0.4,2.3-1,3.5-1.5
						c0.6-0.3,1.1-0.5,1.7-0.8c0.5-0.2,0.8-0.6,0.8-1.2c0-1,0-2,0-2.9c0-1.2,0-2.4,0-3.7c0-0.1,0-0.1,0-0.2c0-0.6,0-1.3,0-2v0
						c0-1.5,0-3.1,0-4.6c-0.4-7.7-2.4-15.1-6-22c-4.1-7.8-10.1-14.2-18-19c-1-0.6-2-1.2-3-1.7l-0.2-0.1
						C31.6,113.5,31.4,113.4,31.1,113.4"/>
				</g>
			</g>
			<g id="Lion-head" transform="translate(12.000000, 1.000000)">
				<g id="face_x2F_mane" transform="translate(0.486433, 0.204568)">
					<path id="path120" class="st0" d="M16.1,152.1c-2.1,0.8-3.9,2.2-6.1,1.4c-0.1-0.2-0.1-0.4-0.3-0.6c1.6-0.7,3.2-1.4,4.9-2.3v-2
						C15.3,150,15.6,150.9,16.1,152.1 M24,151.1c2,0,3.8,0.4,4.7,2.2c-0.1,0.2-0.1,0.4-0.3,0.6c-1.9-0.5-3.9-1.1-5.9-1.7
						c0.5-1.4,1-2.5,1.4-3.5c0.1,0,0.2,0,0.3,0.1C24.2,149.5,24.1,150.2,24,151.1 M18,159.2c-2,4.4-6.6,7.3-9.8,6.7
						c1.7-0.8,3.6-1.8,5.5-2.7c-0.1-0.2-0.1-0.3-0.2-0.5c-1.1,0.1-2.2,0.2-3.9,0.4c1.9-1.2,3.4-2.1,5-3c0,0.3,0.1,0.6,0.1,1.2
						C15.8,160.5,16.7,160,18,159.2 M30.8,166c-4.1,0.3-8.8-2.8-9.8-6.6c1,0.6,1.9,1.1,2.9,1.7c0.1-0.5,0.1-0.8,0.2-1
						c1.6,1,3,1.8,5,3c-1.7-0.2-2.8-0.3-4.2-0.4c0.5,0.5,0.8,0.9,1.2,1.1C27.7,164.5,29.3,165.3,30.8,166 M7.7,158.1
						c0,0.1,0,0.3,0,0.4c1.3,0.4,2.5,0.8,4.3,1.3c-1.8,0.6-3.1,1.3-4.5,1.5c-1.9,0.4-2.8-0.6-2.6-2.5c0.1-1.2,0.3-2.5,0.5-3.8
						c1.2,1,2.3,1.8,3.4,2.7C8.4,157.9,8.1,158,7.7,158.1 M29.9,157.8c1.2-0.9,2.3-1.8,3.3-2.6c-0.5,2,2,4.5-0.4,5.9
						c-2,1.2-3.8-0.4-5.9-1.3c1.6-0.5,2.8-0.9,4.5-1.4C30.6,158,30.3,157.9,29.9,157.8 M9,141.6c-3.5,3.6-2.6,7.5-0.9,11.6
						c-3.9-2.7-5.9-9-4-12.4c0.1,1.2,0.1,2.5,0.2,3.8c0.1,0,0.3,0,0.4,0c1.7-4.8,3.3-9.5,5.1-14.6c-0.1,2.3-0.3,4.3-0.4,6.3
						c0.1,0,0.1,0.1,0.2,0.1c1.5-3.5,3.1-6.9,4.7-10.4l0.5,0.2c-0.3,1-0.5,1.9-0.8,2.9c0.1,0,0.3,0.1,0.4,0.1c1.7-1.8,3.5-3.7,5-5.3
						c1.7,1.8,3.5,3.7,5.6,5.9c-0.3-1.4-0.5-2.3-0.7-3.2c0.1-0.1,0.3-0.1,0.5-0.2c1.5,3.3,3,6.6,4.6,10.2V131
						c1.5,4.2,3.2,9,4.9,13.7c0.1,0,0.2,0,0.3,0c0.1-1.3,0.1-2.5,0.2-4.1c1.8,4.2-0.1,9.8-3.8,12.6c1.7-7.5,1.5-9.5-1.5-11.5
						c-0.8,0.9-1.7,1.9-2.5,2.8c0-0.1-0.1-0.1-0.1-0.2c0.5-1.2,1-2.4,1.6-3.7c-1-0.2-1.8-0.3-2.9-0.5c1.1-0.5,1.8-0.8,2.6-1.1l0-0.6
						c-0.8-0.2-1.5-0.3-2.3-0.5c0.2-0.2,0.4-0.5,0.7-0.8c0-0.2-0.1-0.3-0.1-0.5c-0.6,0.1-1.3,0-1.9,0.2c-0.7,0.3-1.4,0.7-2,1
						c-1.1,0.5-2.3,1-2.2,2.6c0.1,1.5,1.1,2,2.3,2.5c0.9,0.4,1.6,1.1,2.3,1.7c-0.1,0.1-0.2,0.2-0.3,0.3H14.3
						c-0.1-0.2-0.2-0.3-0.3-0.5c0.9-0.5,1.8-1,2.6-1.6c0.8-0.6,1.6-1.4,1.9-2.3c0.4-1.3-0.7-1.9-1.7-2.4c-0.8-0.4-1.6-0.9-2.4-1.2
						c-0.6-0.2-1.2-0.2-1.9-0.2c0,0.2-0.1,0.4-0.1,0.5c0.4,0.4,0.8,0.7,1.2,1.1c-1,0.2-2.4-1.3-2.8,0.9c0.8,0.3,1.5,0.6,2.6,1.1
						c-1.3,0.1-2.1,0.3-3.1,0.4c0.6,1.3,1.1,2.5,1.5,3.6c-0.1,0.1-0.2,0.1-0.3,0.2C10.8,143.5,10,142.7,9,141.6 M2.9,151.2
						c-3.7-4.6-4.6-10.1-4.1-16.1c-3.3,6.3-3.3,16,3.6,22.6c-2.4-0.3-3.8-1.7-6.6-6.5c1.3,6.1,4,10.6,9.6,13
						c-0.1,0.1-0.1,0.3-0.3,0.4c-1.7-0.5-3.3-1-4.8-1.5c2.1,4.5,9,6,16.2,3.5c-1.3,1.8-2.4,2.2-9,3.1c3.6,1.5,7,1.5,10.5,0.5
						c0.8-0.2,1.7-0.2,2.4,0c3.3,0.9,6.6,0.9,9.8-0.5c-3-0.5-6.1-0.7-8.5-3.1c6.4,2.8,11.9,1.5,16.8-3.7c-1.9,0.6-3.6,1.1-5.2,1.6
						l-0.3-0.4c5.5-2.4,8.4-6.8,9.4-12.6c-1.4,2.8-3.1,5.2-6.8,6.5c6.7-7,7.6-14.5,4.2-22.8c0.3,5.8-0.6,11.2-4.3,15.9
						c3.3-9.4,3.6-18.4-2.4-26.8v12.3c0,0-0.1,0.1-0.1,0.1c-0.4-1.3-0.8-2.6-1.1-4c-0.5-2.3-0.6-4.6-1.2-6.9
						c-0.9-3.8-3.1-6.8-6.6-8.7c1.9,3,2.8,6.3,2.7,9.5c-2.4-4.3-5-8.7-7.7-13.6c-2.7,4.7-5.3,9.2-7.7,13.3c-0.4-1.9,0.1-4,2.8-9.5
						c-3.7,2.1-5.9,5.1-6.8,8.9c-0.5,2.3-0.7,4.7-1.2,7.1c-0.3,1.4-0.8,2.7-1.3,4.3v-12.7c-3,3.6-4.2,8-4.6,12.8
						C0.3,142.2,1.3,146.7,2.9,151.2"/>
				</g>
				<g id="chin" transform="translate(54.086433, 41.950022)">
					<path id="path124" class="st0" d="M-34.3,86.4c-0.8,1.3-1.5,2.3-2.2,3.5c-0.2-0.3-0.3-0.5-0.4-0.8c-1.8,1.7-2.2,3.8-1,5.3
						c1.6,2.1,5.2,2.2,7,0.2c1.4-1.5,1.1-3.5-0.8-5.6c-0.1,0.3-0.2,0.6-0.3,1.1C-32.8,88.7-33.5,87.6-34.3,86.4"/>
				</g>
			</g>
		</g>
	</g>
</g>
</svg>
