<?xml version="1.0" encoding="UTF-8"?>
<svg id="Layer_1" data-name="Layer 1" xmlns="http://www.w3.org/2000/svg" viewBox="0 0 516.11 598.49">
  <defs>
    <style>
      .cls-1 {
        fill: #ffffff;
      }
    </style>
  </defs>
  <path class="cls-1" d="m408.95,131.21c21-76.16-5.76-122.74-7-124.75-2.69-4.51-7.79-7-13-6.36-38.24,4.91-76.57,56.29-95.15,84.91-23.76-3.37-47.88-3.37-71.64,0C203.58,56.39,165.27,5.01,127.04.1c-5.2-.63-10.27,1.88-12.93,6.39-1.2,2-28,48.59-7,124.75C39.82,179.69-.04,257.56,0,340.49,0,482.77,115.75,598.49,258,598.49s258.11-115.7,258.11-258c.06-82.94-39.81-160.84-107.12-209.3m-271.26,10.08l.06-.07c-.75-2.07-1.42-4.16-2.06-6.22l-.74-2.37c-16.49-51.78-8.06-87.9-2.23-103.76,22.56,9.93,51.31,44.32,71.79,77.42,2.83,4.57,8.16,6.95,13.45,6,26.49-4.66,53.58-4.66,80.07,0,5.29.96,10.62-1.43,13.44-6,20.5-33.1,49.24-67.47,71.82-77.42,5.83,15.91,14.21,52-2.24,103.76h0l-.71,2.23c-.66,2.09-1.32,4.22-2.09,6.34l.05.08c-1.04,2.87-1.04,6,0,8.87.23.66,18.79,52.9,19.16,116.73l-93.32,37v.05c-4.44,1.75-7.57,5.76-8.2,10.49-.06.43-5.87,42.63-37.93,42.63s-37.69-40.93-37.91-42.63c-.63-4.73-3.77-8.75-8.21-10.5h0l-93.31-37c.37-63.83,18.93-116.07,19.17-116.73,1.04-2.87,1.04-6.02,0-8.89m120.3,430.99c-40.36.02-80.02-10.56-115-30.68,26.78-2.29,53.34-6.72,79.42-13.25,28.6-2.23,50.6,11.14,68.6,41.49-10.95,1.59-22,2.39-33.07,2.4m109.87-27.74c-15.77,8.52-32.49,15.16-49.8,19.8-12.82-24.09-28.37-41.26-46.45-51.45,44.8-18.87,76.23-46.53,98.28-75.45-3.9,35.56-4.57,71.41-2,107.09m-114.34-52.7c-11.92,4-24.11,7.62-36.24,10.7-35.73,9.06-72.39,13.94-109.25,14.54C10.58,434.42-1.52,288.39,81.09,190.86c7.52-8.88,15.71-17.19,24.48-24.84-8.7,33.56-20.37,96.52-8,161.51,1.17,6.21,6.59,10.7,12.91,10.7.83.01,1.65-.07,2.46-.23,7.14-1.36,11.82-8.25,10.46-15.39-1.68-8.93-2.9-17.94-3.67-27l75.74,30c5.44,23.47,23.26,57.69,62.53,57.69s57.11-34.21,62.56-57.68l75.72-30c-.77,9.06-2,18.07-3.67,27-7.16,37.69-35.06,129.59-139.07,169.15m139.79,36.72c-2.43-52.75,2.17-101.74,14.95-163.09,4.32-12.34,7.73-24.99,10.2-37.83,12.36-65,.69-127.95-8-161.51,50.4,43.95,79.31,107.56,79.28,174.43,0,77.31-38.08,145.84-96.43,188"/>
  <path class="cls-1" d="m258,341.79c10.27-.01,18.6-8.34,18.59-18.61s-8.34-18.6-18.61-18.59c-10.26.01-18.58,8.33-18.59,18.59,0,10.27,8.34,18.61,18.61,18.61"/>
  <path class="cls-1" d="m204.56,246.7c10.27-.01,18.6-8.34,18.59-18.61-.01-10.27-8.34-18.6-18.61-18.59-10.26.01-18.58,8.33-18.59,18.59,0,10.27,8.34,18.61,18.61,18.61"/>
  <path class="cls-1" d="m314.11,246.7c10.27-.01,18.6-8.34,18.59-18.61-.01-10.27-8.34-18.6-18.61-18.59-10.26.01-18.58,8.33-18.59,18.59-.01,10.27,8.32,18.6,18.59,18.61,0,0,.02,0,.02,0"/>
  <path class="cls-1" d="m212.18,465c-34.07-24.33-60.5-58.77-76.44-99.61-2.64-6.77-10.27-10.11-17.04-7.46-6.77,2.64-10.11,10.27-7.46,17.03h0c17.8,45.6,47.42,84.15,85.65,111.46,5.98,4.14,14.17,2.65,18.31-3.33,4.06-5.86,2.72-13.87-3.02-18.09"/>
</svg>