<?xml version="1.0" encoding="UTF-8"?>
<svg id="Layer_1" data-name="Layer 1" xmlns="http://www.w3.org/2000/svg" viewBox="0 0 157.88 177.79">
  <defs>
    <style>
      .cls-1 {
        fill: #c29f00;
      }

      .cls-2 {
        fill: #3a0951;
      }
    </style>
  </defs>
  <path class="cls-1" d="m4.28,19.92c.02,3.88.02,7.76.02,11.64v.11c0,7.26,0,14.76.12,22.13.18,11.19,1.92,22.54,5.33,34.72,5.54,19.81,14.56,37.25,26.82,51.85,10.66,12.7,24.04,23.27,40.87,32.32l.16-.09c2.72-1.51,5.5-3.07,8.17-4.68,21.18-12.86,37.45-30.12,48.36-51.3,9.59-18.62,15.05-38.66,16.21-59.56.23-4.14.17-8.39.11-12.51-.03-1.94-.06-3.85-.06-5.77h.1l-.04-.26h-.07c0-3.53.06-7.09.12-10.52.04-2.71.09-5.38.11-8.07-1.52-.66-3-1.34-4.48-2.01-3.03-1.38-6.17-2.81-9.3-3.95-17.94-6.57-37-9.83-58.27-9.97h-.91c-6.57,0-12.97.46-18.37.92-11.83,1-23.71,3.35-35.33,7.01-7.15,2.25-13.58,4.87-19.67,8.01Zm73.12,156.87c-.58,0-1.13-.13-1.58-.37-17.56-9.37-31.5-20.36-42.62-33.6-12.62-15.03-21.9-32.96-27.59-53.3C2.12,77.03.33,65.37.15,53.86.03,46.46.02,38.94.02,31.67v-.09c0-4.06,0-8.1-.02-12.15,0-1.87,1.39-2.57,1.91-2.84l.11-.06c6.36-3.3,13.09-6.05,20.56-8.4C34.51,4.38,46.73,1.96,58.89.94c5.49-.46,12.02-.94,18.76-.94h.93c21.8.15,41.36,3.5,59.8,10.25,3.29,1.2,6.5,2.66,9.6,4.08,1.58.72,3.11,1.42,4.65,2.08,1.49.65,2.24,1.79,2.23,3.41-.02,2.74-.06,5.47-.11,8.19-.05,3.21-.11,6.83-.11,10.33.04.19.04.39.02.58,0,1.82.03,3.64.05,5.46v.09c.06,4.18.13,8.51-.11,12.79-1.19,21.43-6.79,41.98-16.62,61.08-11.26,21.85-28.04,39.65-49.89,52.92-2.76,1.68-5.58,3.25-8.31,4.76l-.58.32c-.51.28-1.17.45-1.82.45Z"/>
  <path class="cls-2" d="m7.28,20.92c.02,3.88.02,7.76.02,11.64v.11c0,7.26,0,14.76.12,22.13.18,11.19,1.92,22.54,5.33,34.72,5.54,19.81,14.56,37.25,26.82,51.85,10.66,12.7,24.04,23.27,40.87,32.32l.16-.09c2.72-1.51,5.5-3.07,8.17-4.68,21.18-12.86,37.45-30.12,48.36-51.3,9.59-18.62,15.05-38.66,16.21-59.56.23-4.14.17-8.39.11-12.51-.03-1.94-.06-3.85-.06-5.77h.1l-.04-.26h-.07c0-3.53.06-7.09.12-10.52.04-2.71.09-5.38.11-8.07-1.52-.66-3-1.34-4.48-2.01-3.03-1.38-6.17-2.81-9.3-3.95-17.94-6.57-37-9.83-58.27-9.97h-.91c-6.57,0-12.97.46-18.37.92-11.83,1-23.71,3.35-35.33,7.01-7.15,2.25-13.58,4.87-19.67,8.01Zm73.12,156.87c-.58,0-1.13-.13-1.58-.37-17.56-9.37-31.5-20.36-42.62-33.6-12.62-15.03-21.9-32.96-27.59-53.3-3.49-12.48-5.28-24.15-5.47-35.66-.12-7.4-.12-14.92-.12-22.19v-.09c0-4.06,0-8.1-.02-12.15,0-1.87,1.38-2.57,1.91-2.84l.11-.06c6.36-3.3,13.09-6.05,20.56-8.4,11.93-3.75,24.15-6.17,36.31-7.2,5.49-.46,12.02-.94,18.76-.94h.93c21.8.15,41.36,3.5,59.8,10.25,3.29,1.2,6.5,2.66,9.6,4.08,1.58.72,3.11,1.42,4.65,2.08,1.49.65,2.24,1.79,2.23,3.41-.02,2.74-.06,5.47-.11,8.19-.05,3.21-.11,6.83-.11,10.33.04.19.04.39.02.58,0,1.82.03,3.64.05,5.46v.09c.06,4.18.13,8.51-.11,12.79-1.19,21.43-6.79,41.98-16.62,61.08-11.26,21.85-28.04,39.65-49.89,52.92-2.76,1.68-5.58,3.25-8.31,4.76l-.58.32c-.51.28-1.17.45-1.82.45Z"/>
  <path class="cls-1" d="m68.44,68.1c-5.79-2.11-10.8-5.95-17.04-3.83-.22.57-.45,1.14-.67,1.71,4.41,2.01,8.82,4.02,13.73,6.26v5.59c1.62-3.96,2.68-6.56,3.97-9.72Zm22.08,2.68c5.74-.11,10.46-1.22,13.04-6.12-.22-.6-.44-1.19-.66-1.79-5.43,1.54-10.86,3.08-16.51,4.68,1.52,3.91,2.67,6.87,3.83,9.83.24-.07.48-.15.71-.22-.12-1.91-.24-3.82-.41-6.38Zm-16.67-22.38c-5.5-12.27-18.39-20.31-27.27-18.71,4.58,2.28,9.93,4.94,15.27,7.6-.21.46-.42.92-.64,1.37-3.12-.31-6.23-.62-10.76-1.07,5.44,3.34,9.48,5.81,13.75,8.43.09-.83.18-1.74.33-3.21,2.98,1.79,5.64,3.38,9.31,5.58Zm35.38-18.89c-11.44-.73-24.63,7.92-27.22,18.28,2.7-1.56,5.4-3.11,8.25-4.75.27,1.36.44,2.16.59,2.92,4.39-2.67,8.42-5.12,13.81-8.4-4.62.46-7.77.77-11.75,1.16,1.44-1.37,2.16-2.47,3.18-2.97,4.49-2.25,9.07-4.32,13.14-6.24Zm-64.05,21.91c0-.34,0-.68,0-1.02,3.52-1.06,7.05-2.12,12.08-3.64-5.03-1.77-8.72-3.52-12.61-4.32-5.2-1.07-7.8,1.62-7.29,6.86.34,3.44.84,6.86,1.3,10.5,3.35-2.67,6.35-5.06,9.49-7.55-1.06-.3-2.01-.57-2.96-.84Zm61.67.91c3.32,2.6,6.32,4.96,9.32,7.31-1.25-5.68,5.63-12.43-1.25-16.44-5.51-3.21-10.69,1.03-16.53,3.71,4.53,1.45,7.93,2.54,12.39,3.97-2.04.75-2.82,1.04-3.92,1.44Zm-58.26,44.87c-9.85-10-7.26-20.89-2.59-32.24-10.86,7.41-16.36,25.02-11.2,34.47.21-3.42.43-6.95.65-10.48.37-.02.73-.03,1.1-.05,4.61,13.26,9.23,26.53,14.13,40.61-.38-6.38-.71-12-1.04-17.62.21-.09.41-.18.61-.26,4.34,9.64,8.68,19.29,13.02,28.93l1.33-.52c-.71-2.7-1.43-5.4-2.14-8.1.35-.14.7-.27,1.05-.41,4.83,5.1,9.65,10.21,13.99,14.79,4.66-4.94,9.62-10.2,15.46-16.4-.87,3.77-1.45,6.29-2.03,8.82.44.19.89.38,1.33.57,4.17-9.22,8.34-18.45,12.81-28.34v15.93c4.17-11.75,8.85-24.94,13.54-38.13.32.05.63.1.94.15.17,3.52.35,7.04.56,11.37,4.87-11.66-.19-27.41-10.62-35.1,4.84,20.88,4.22,26.27-4.29,31.93-2.23-2.55-4.57-5.23-6.91-7.91-.11.15-.22.3-.33.45,1.45,3.34,2.89,6.67,4.52,10.43-2.93.47-5.02.8-8.18,1.3,3.14,1.34,5.15,2.2,7.16,3.06l.07,1.73c-2.17.46-4.33.93-6.53,1.4.49.56,1.21,1.39,1.94,2.22-.09.46-.18.92-.28,1.38-1.73-.19-3.55-.1-5.16-.65-1.99-.68-3.77-1.97-5.69-2.88-3.09-1.46-6.3-2.65-6.05-7.12.24-4.2,2.96-5.56,6.33-6.93,2.4-.97,4.37-3.01,6.54-4.58-.32-.3-.63-.61-.95-.91h-28.31c-.29.47-.58.95-.86,1.42,2.44,1.49,5.13,2.7,7.26,4.55,2.08,1.8,4.36,4.01,5.19,6.5,1.21,3.64-1.94,5.28-4.79,6.63-2.24,1.07-4.35,2.47-6.67,3.32-1.59.58-3.44.45-5.17.64-.12-.48-.23-.97-.35-1.46,1.06-.97,2.11-1.94,3.4-3.11-2.9-.5-6.76,3.74-7.68-2.38,2.08-.85,4.07-1.66,7.31-2.98-3.62-.45-5.79-.72-8.66-1.07,1.6-3.75,2.96-6.92,4.31-10.1-.24-.17-.47-.34-.71-.51-2.28,2.37-4.57,4.74-7.37,7.66Zm-16.88-26.53c-10.29,12.97-12.79,28.06-11.5,44.7-9.26-17.56-9.19-44.41,9.92-62.86-6.65.79-10.56,4.59-18.26,18.21,3.45-17.12,11.14-29.6,26.81-36.14-.22-.39-.45-.78-.67-1.17-4.57,1.43-9.13,2.86-13.3,4.17,5.85-12.44,25.04-16.81,45.17-9.81-3.68-4.88-6.83-6-24.93-8.67,10.11-4.1,19.55-4.16,29.24-1.49,2.13.59,4.68.49,6.83-.08,9.32-2.48,18.41-2.48,27.39,1.43-8.38,1.39-16.94,1.91-23.58,8.65,17.76-7.87,32.95-4.27,46.78,10.32-5.45-1.71-9.93-3.12-14.42-4.53l-.86,1.09c15.42,6.71,23.29,18.99,26.2,34.96-3.87-7.82-8.66-14.65-18.89-18.21,18.73,19.37,21.15,40.35,11.66,63.44.74-15.98-1.68-31.06-11.95-44.12,9.33,26.08,9.95,51.15-6.62,74.55v-34.19c-.14-.11-.27-.22-.41-.33-1.05,3.67-2.35,7.28-3.08,11.01-1.25,6.34-1.8,12.83-3.27,19.11-2.5,10.74-8.5,19.03-18.5,24.29,5.26-8.4,7.71-17.48,7.61-26.34-6.77,11.83-13.89,24.27-21.53,37.62-7.63-13.23-14.73-25.55-21.28-36.9-1.13,5.4.36,11.16,7.75,26.4-10.36-5.87-16.35-14.06-18.86-24.74-1.51-6.45-2.09-13.11-3.39-19.62-.75-3.76-2.11-7.39-3.47-12.01v35.34c-8.27-9.93-11.81-22.28-12.82-35.74-.99-13.33,1.91-25.91,6.24-38.33Z"/>
  <path class="cls-1" d="m77.26,134.84c-2.24-3.49-4.13-6.44-6.25-9.74-.45.94-.76,1.59-1.07,2.23-4.95-4.7-6.01-10.46-2.71-14.75,4.51-5.87,14.47-6.14,19.53-.53,3.81,4.22,3.07,9.81-2.17,15.56-.26-.92-.49-1.74-.84-2.96-2.28,3.58-4.33,6.8-6.49,10.19Z"/>
</svg>