<?xml version="1.0" encoding="UTF-8"?>
<svg width="2490px" height="2490px" viewBox="0 0 2490 2490" version="1.1" xmlns="http://www.w3.org/2000/svg" xmlns:xlink="http://www.w3.org/1999/xlink">
    <title>linkedin</title>
    <g id="Page-1" stroke="none" stroke-width="1" fill="none" fill-rule="evenodd">
        <g id="linkedin" fill="#FFFFFF" fill-rule="nonzero">
            <path d="M756.687656,2083.7993 L756.687656,962.793516 L384.0825,962.793516 L384.0825,2083.7993 L756.726562,2083.7993 L756.687656,2083.7993 Z M570.462891,809.765508 C700.370859,809.765508 781.247227,723.68543 781.247227,616.109648 C778.815586,506.082773 700.370859,422.405156 572.933437,422.405156 C445.408477,422.405156 362.119922,506.082773 362.119922,616.099922 C362.119922,723.675703 442.967109,809.755781 568.021523,809.755781 L570.433711,809.755781 L570.462891,809.765508 Z M962.919961,2083.7993 L1335.50566,2083.7993 L1335.50566,1457.84637 C1335.50566,1424.38699 1337.9373,1390.84008 1347.78059,1366.94191 C1374.70371,1299.97453 1436.01023,1230.65332 1538.9659,1230.65332 C1673.7566,1230.65332 1727.70984,1333.44363 1727.70984,1484.15672 L1727.70984,2083.7993 L2100.27609,2083.7993 L2100.27609,1441.04859 C2100.27609,1096.73801 1916.48297,936.512344 1671.34441,936.512344 C1470.36445,936.512344 1382.0959,1048.84441 1333.05457,1125.35355 L1335.53484,1125.35355 L1335.53484,962.832422 L962.949141,962.832422 C967.812422,1067.99602 962.919961,2083.8382 962.919961,2083.8382 L962.919961,2083.7993 Z" id="Shape"></path>
        </g>
    </g>
</svg>