<?xml version="1.0" encoding="UTF-8"?>
<svg id="Layer_1" data-name="Layer 1" xmlns="http://www.w3.org/2000/svg" viewBox="0 0 106.07 113.14">
<defs>
    <style>
      .cls-2 {
        fill: #ffffff;
        fill-rule: evenodd;
      }
    </style>
  </defs>
  <path class="cls-2" d="m75.59,86.24c14.26-1.7,26.66-10.43,28.21-18.41,2.46-12.57,2.26-30.68,2.26-30.68,0-24.54-16.17-31.74-16.17-31.74C81.76,1.68,67.77.12,53.23,0h-.35c-14.55.12-28.53,1.68-36.68,5.41C16.19,5.41.04,12.6.04,37.15v4.68c-.04,4.53-.06,9.55.06,14.79.59,24,4.43,47.66,26.73,53.53,10.28,2.71,19.11,3.27,26.23,2.89,12.89-.71,20.13-4.58,20.13-4.58l-.42-9.31s-9.21,2.9-19.57,2.55c-10.25-.35-21.07-1.1-22.73-13.63-.16-1.16-.24-2.33-.23-3.51,0,0,10.07,2.45,22.83,3.03,7.8.35,15.11-.45,22.54-1.34h0Zm11.41-17.47h-11.83v-28.85c0-6.07-2.57-9.16-7.71-9.16-5.69,0-8.54,3.66-8.54,10.9v15.79h-11.77v-15.8c0-7.24-2.85-10.9-8.54-10.9-5.14,0-7.71,3.08-7.71,9.16v28.84h-11.83v-29.71c0-6.07,1.56-10.9,4.67-14.47,3.22-3.57,7.44-5.4,12.68-5.4,6.05,0,10.64,2.32,13.67,6.95l2.95,4.91,2.95-4.91c3.03-4.63,7.62-6.95,13.68-6.95,5.23,0,9.45,1.83,12.66,5.4,3.13,3.57,4.67,8.39,4.67,14.47,0,0,0,29.72,0,29.72Z"/>
</svg>