<svg width="369" height="335" viewBox="0 0 369 335" fill="none" xmlns="http://www.w3.org/2000/svg">
<path d="M184 234.667C180.703 234.667 177.481 235.644 174.74 237.475C171.999 239.307 169.863 241.91 168.602 244.955C167.34 248.001 167.01 251.352 167.653 254.585C168.296 257.818 169.884 260.788 172.215 263.118C174.546 265.449 177.515 267.037 180.748 267.68C183.981 268.323 187.332 267.993 190.378 266.731C193.423 265.47 196.026 263.334 197.858 260.593C199.689 257.852 200.666 254.63 200.666 251.333C200.666 246.913 198.91 242.674 195.785 239.548C192.659 236.423 188.42 234.667 184 234.667ZM361.833 259.167L227.666 25.8333C223.33 18.0585 216.996 11.5826 209.32 7.07445C201.643 2.5663 192.902 0.189453 184 0.189453C175.097 0.189453 166.356 2.5663 158.68 7.07445C151.003 11.5826 144.67 18.0585 140.333 25.8333L6.99978 259.167C2.51305 266.734 0.102161 275.35 0.0105258 284.147C-0.0811091 292.944 2.14975 301.609 6.47788 309.267C10.806 316.926 17.0782 323.308 24.6612 327.767C32.2442 332.227 40.8695 334.607 49.6665 334.667H318.333C327.201 334.754 335.932 332.481 343.632 328.082C351.331 323.682 357.722 317.314 362.149 309.63C366.577 301.946 368.88 293.223 368.825 284.356C368.769 275.488 366.356 266.794 361.833 259.167V259.167ZM333 292.5C331.539 295.099 329.408 297.259 326.828 298.754C324.248 300.249 321.315 301.025 318.333 301H49.6665C46.685 301.025 43.7514 300.249 41.1717 298.754C38.5921 297.259 36.4607 295.099 34.9998 292.5C33.537 289.966 32.7669 287.092 32.7669 284.167C32.7669 281.241 33.537 278.367 34.9998 275.833L168.333 42.5C169.732 39.7699 171.857 37.4789 174.474 35.879C177.091 34.2792 180.099 33.4326 183.166 33.4326C186.234 33.4326 189.242 34.2792 191.859 35.879C194.476 37.4789 196.601 39.7699 198 42.5L332.166 275.833C333.82 278.331 334.77 281.227 334.917 284.219C335.063 287.21 334.401 290.186 333 292.833V292.5ZM184 101.333C179.58 101.333 175.34 103.089 172.215 106.215C169.089 109.34 167.333 113.58 167.333 118V184.667C167.333 189.087 169.089 193.326 172.215 196.452C175.34 199.577 179.58 201.333 184 201.333C188.42 201.333 192.659 199.577 195.785 196.452C198.91 193.326 200.666 189.087 200.666 184.667V118C200.666 113.58 198.91 109.34 195.785 106.215C192.659 103.089 188.42 101.333 184 101.333Z" fill="#C4271D" fill-opacity="0.98"/>
</svg>
