<svg width="400" height="400" viewBox="0 0 400 400" fill="none" xmlns="http://www.w3.org/2000/svg">
<path d="M141.13 139.909L141.093 139.94L141.057 139.974L141.13 139.909ZM307.032 136.8C305.872 135.683 304.586 134.705 303.199 133.887C301.235 132.731 299.055 131.99 296.794 131.711C294.533 131.431 292.238 131.618 290.052 132.26C287.866 132.902 285.835 133.986 284.085 135.445C282.334 136.903 280.901 138.705 279.875 140.739C274.134 152.051 266.216 162.117 256.575 170.361C258.049 162.055 258.793 153.635 258.797 145.198C258.828 119.534 252.057 94.3187 239.174 72.1212C226.292 49.9238 207.757 31.5366 185.457 18.8318C183 17.4393 180.23 16.6937 177.407 16.6649C174.583 16.6362 171.798 17.3253 169.314 18.6675C166.83 20.0098 164.727 21.9612 163.203 24.3387C161.68 26.7162 160.785 29.4417 160.603 32.2597C159.671 48.0626 155.539 63.5116 148.46 77.6708C141.38 91.8299 131.5 104.404 119.417 114.632L115.576 117.757C102.941 126.259 91.7576 136.739 82.4544 148.796C67.9929 167.014 57.9751 188.351 53.1953 211.115C48.4155 233.879 49.0052 257.444 54.9176 279.94C60.83 302.437 71.9026 323.246 87.2571 340.718C102.612 358.191 121.826 371.845 143.376 380.599C145.906 381.633 148.652 382.028 151.372 381.75C154.091 381.472 156.7 380.529 158.968 379.005C161.237 377.48 163.096 375.42 164.38 373.007C165.665 370.595 166.336 367.903 166.334 365.169C166.322 363.401 166.042 361.645 165.504 359.961C161.775 345.945 160.701 331.355 162.338 316.943C178.109 346.689 203.424 370.267 234.213 383.887C237.971 385.568 242.22 385.794 246.135 384.522C270.461 376.67 292.376 362.729 309.796 344.022C327.217 325.316 339.565 302.466 345.667 277.643C351.769 252.821 351.422 226.85 344.66 202.199C337.898 177.548 324.945 155.035 307.032 136.8V136.8ZM241.952 350.651C227.424 343.288 214.608 332.95 204.338 320.309C194.068 307.668 186.573 293.007 182.341 277.279C181.049 271.983 180.049 266.62 179.346 261.214C178.87 257.772 177.33 254.564 174.942 252.04C172.553 249.516 169.435 247.801 166.024 247.136C164.974 246.928 163.905 246.825 162.834 246.826C159.905 246.825 157.027 247.597 154.491 249.063C151.955 250.529 149.85 252.637 148.389 255.176C134.56 279.028 127.605 306.244 128.296 333.806C116.133 324.349 105.969 312.573 98.3906 299.159C90.8127 285.745 85.9725 270.961 84.1505 255.662C82.3285 240.364 83.5609 224.856 87.7764 210.038C91.9918 195.22 99.1064 181.385 108.708 169.337C115.998 159.867 124.793 151.658 134.741 145.036C135.172 144.758 135.585 144.454 135.978 144.125C135.978 144.125 140.923 140.034 141.092 139.94C164.837 119.856 181.725 92.8652 189.404 62.7285C207.564 79.5157 219.673 101.829 223.85 126.204C228.028 150.578 224.041 175.65 212.508 197.527C210.984 200.446 210.359 203.751 210.712 207.025C211.064 210.299 212.378 213.395 214.489 215.923C216.599 218.451 219.41 220.298 222.568 221.23C225.727 222.162 229.09 222.137 232.235 221.16C257.764 213.157 280.23 197.525 296.607 176.368C306.449 190.907 312.884 207.479 315.432 224.849C317.979 242.22 316.574 259.942 311.32 276.694C306.067 293.446 297.101 308.797 285.09 321.602C273.079 334.408 258.333 344.337 241.952 350.652L241.952 350.651Z" fill="url(#paint0_linear_608_3542)"/>
<defs>
<linearGradient id="paint0_linear_608_3542" x1="200" y1="16.6641" x2="200" y2="385.336" gradientUnits="userSpaceOnUse">
<stop stop-color="#C1271D"/>
<stop offset="0.717375" stop-color="#E26307"/>
<stop offset="0.976436" stop-color="#221EFE"/>
</linearGradient>
</defs>
</svg>
