 <?xml version="1.0" encoding="UTF-8"?>
 <svg
      version="1.1"
      id="Layer_1"
      xmlns="http://www.w3.org/2000/svg"
      viewBox="0 0 156 177"
      class="lionLogo"
      // fill="#C29F00"
    >
      <g id="Page-1">
        <g id="Artboard" transform="translate(-479.000000, -325.000000)">
          <g
            id="logo-no-text-small-shield-layers"
            transform="translate(557.000000, 414.000000) scale(-1, 1) rotate(-180.000000) translate(-557.000000, -414.000000) translate(479.000000, 325.000000)"
          >
            <g
              id="Shield"
              transform="translate(78.000000, 89.000000) rotate(-360.000000) translate(-78.000000, -89.000000) translate(-0.000000, -0.000000)"
            >
              <g
                id="shield-background"
                transform="translate(3.668327, 3.787259)"
              >
                <path
                  id="path112"
                  d="M150.3,135.7C150.4,135.7,150.2,135.8,150.3,135.7c0,6.4,0.2,12.5,0.2,18.8c0,0.8-0.3,1.3-1,1.6
						c-4.7,2-9.3,4.3-14.1,6.1c-19,6.9-38.8,9.9-58.9,10.1c-6.5,0-13-0.4-19.5-0.9c-12.2-1-24.1-3.4-35.8-7.1
						c-6.9-2.2-13.7-4.9-20.2-8.2c-0.5-0.2-0.9-0.4-0.9-1.1c0.1-11.4,0-22.8,0.1-34.2c0.2-11.9,2.2-23.6,5.4-35
						c5.4-19.4,14.2-37,27.2-52.3c11.7-13.9,26-24.5,41.9-32.9c0.3-0.2,0.9-0.1,1.2,0.1c3,1.6,5.9,3.3,8.8,5
						c21,12.7,37.6,29.7,49,51.9c9.7,18.8,15.2,38.8,16.4,60C150.6,123.4,150.3,129.5,150.3,135.7"
                />
              </g>
              <g
                id="single-thick-shield-ring"
                transform="translate(0.687195, 0.803652)"
              >
                <path
                  id="path180"
                  class="lionHover"
                  fill="#C29F00"
                  d="M4.3,157.1c0-3.9,0-7.8,0-11.6v-0.1c0-7.3,0-14.8,0.1-22.1c0.2-11.2,1.9-22.5,5.3-34.7
						c5.5-19.8,14.6-37.3,26.8-51.9c10.7-12.7,24-23.3,40.9-32.3l0.2,0.1c2.7,1.5,5.5,3.1,8.2,4.7c21.2,12.9,37.5,30.1,48.4,51.3
						c9.6,18.6,15,38.7,16.2,59.6c0.2,4.1,0.2,8.4,0.1,12.5c0,1.9-0.1,3.9-0.1,5.8h0.1l0,0.3h-0.1c0,3.5,0.1,7.1,0.1,10.5
						c0,2.7,0.1,5.4,0.1,8.1c-1.5,0.7-3,1.3-4.5,2c-3,1.4-6.2,2.8-9.3,4c-17.9,6.6-37,9.8-58.3,10l-0.9,0c-6.6,0-13-0.5-18.4-0.9
						c-11.8-1-23.7-3.4-35.3-7C16.9,162.8,10.4,160.2,4.3,157.1 M77.5,0.2c-0.6,0-1.1,0.1-1.6,0.4C58.3,9.9,44.4,20.9,33.3,34.2
						c-12.6,15-21.9,33-27.6,53.3c-3.5,12.5-5.3,24.1-5.5,35.7c-0.1,7.4-0.1,14.9-0.1,22.2v0.1c0,4.1,0,8.1,0,12.1
						c0,1.9,1.4,2.6,1.9,2.8l0.1,0.1c6.4,3.3,13.1,6,20.6,8.4c11.9,3.8,24.2,6.2,36.3,7.2c5.5,0.5,12,0.9,18.8,0.9l0.9,0
						c21.8-0.1,41.4-3.5,59.8-10.2c3.3-1.2,6.5-2.7,9.6-4.1c1.6-0.7,3.1-1.4,4.7-2.1c1.5-0.6,2.2-1.8,2.2-3.4c0-2.7-0.1-5.5-0.1-8.2
						c-0.1-3.2-0.1-6.8-0.1-10.3c0-0.2,0-0.4,0-0.6c0-1.8,0-3.6,0.1-5.5l0-0.1c0.1-4.2,0.1-8.5-0.1-12.8c-1.2-21.4-6.8-42-16.6-61.1
						C126.8,36.8,110,19,88.2,5.7c-2.8-1.7-5.6-3.2-8.3-4.8l-0.6-0.3C78.8,0.4,78.1,0.2,77.5,0.2"
                />
              </g>
            </g>
            <g id="Lion-head" transform="translate(12.000000, 1.000000)">
              <g id="face_x2F_mane" transform="translate(0.486433, 0.204568)">
                <path
                  id="path120"
                  class="lionHover"
                  fill="#C29F00"
                  d="M56.7,108.5c-5.8,2.1-10.8,6-17,3.8c-0.2-0.6-0.4-1.1-0.7-1.7c4.4-2,8.8-4,13.7-6.3v-5.6
						C54.4,102.7,55.4,105.3,56.7,108.5 M78.8,105.8c5.7,0.1,10.5,1.2,13,6.1c-0.2,0.6-0.4,1.2-0.7,1.8c-5.4-1.5-10.9-3.1-16.5-4.7
						c1.5-3.9,2.7-6.9,3.8-9.8c0.2,0.1,0.5,0.1,0.7,0.2C79.1,101.3,78.9,103.2,78.8,105.8 M62.1,128.2
						c-5.5,12.3-18.4,20.3-27.3,18.7c4.6-2.3,9.9-4.9,15.3-7.6c-0.2-0.5-0.4-0.9-0.6-1.4c-3.1,0.3-6.2,0.6-10.8,1.1
						c5.4-3.3,9.5-5.8,13.8-8.4c0.1,0.8,0.2,1.7,0.3,3.2C55.8,132,58.4,130.4,62.1,128.2 M97.5,147.1c-11.4,0.7-24.6-7.9-27.2-18.3
						c2.7,1.6,5.4,3.1,8.2,4.8c0.3-1.4,0.4-2.2,0.6-2.9c4.4,2.7,8.4,5.1,13.8,8.4c-4.6-0.5-7.8-0.8-11.7-1.2c1.4,1.4,2.2,2.5,3.2,3
						C88.9,143.1,93.4,145.2,97.5,147.1 M33.4,125.2c0,0.3,0,0.7,0,1c3.5,1.1,7,2.1,12.1,3.6c-5,1.8-8.7,3.5-12.6,4.3
						c-5.2,1.1-7.8-1.6-7.3-6.9c0.3-3.4,0.8-6.9,1.3-10.5c3.4,2.7,6.4,5.1,9.5,7.5C35.4,124.6,34.4,124.9,33.4,125.2 M95.1,124.3
						c3.3-2.6,6.3-5,9.3-7.3c-1.3,5.7,5.6,12.4-1.2,16.4c-5.5,3.2-10.7-1-16.5-3.7c4.5-1.5,7.9-2.5,12.4-4
						C97,125,96.2,124.7,95.1,124.3 M36.9,79.4c-9.8,10-7.3,20.9-2.6,32.2c-10.9-7.4-16.4-25-11.2-34.5c0.2,3.4,0.4,7,0.6,10.5
						c0.4,0,0.7,0,1.1,0c4.6-13.3,9.2-26.5,14.1-40.6c-0.4,6.4-0.7,12-1,17.6c0.2,0.1,0.4,0.2,0.6,0.3c4.3-9.6,8.7-19.3,13-28.9
						l1.3,0.5c-0.7,2.7-1.4,5.4-2.1,8.1c0.3,0.1,0.7,0.3,1,0.4c4.8-5.1,9.7-10.2,14-14.8c4.7,4.9,9.6,10.2,15.5,16.4
						c-0.9-3.8-1.4-6.3-2-8.8c0.4-0.2,0.9-0.4,1.3-0.6c4.2,9.2,8.3,18.4,12.8,28.3V49.7c4.2,11.7,8.9,24.9,13.5,38.1
						c0.3,0,0.6-0.1,0.9-0.1c0.2-3.5,0.3-7,0.6-11.4c4.9,11.7-0.2,27.4-10.6,35.1c4.8-20.9,4.2-26.3-4.3-31.9
						c-2.2,2.6-4.6,5.2-6.9,7.9c-0.1-0.2-0.2-0.3-0.3-0.5c1.4-3.3,2.9-6.7,4.5-10.4c-2.9-0.5-5-0.8-8.2-1.3c3.1-1.3,5.1-2.2,7.2-3.1
						l0.1-1.7c-2.2-0.5-4.3-0.9-6.5-1.4c0.5-0.6,1.2-1.4,1.9-2.2c-0.1-0.5-0.2-0.9-0.3-1.4c-1.7,0.2-3.6,0.1-5.2,0.6
						c-2,0.7-3.8,2-5.7,2.9c-3.1,1.5-6.3,2.7-6.1,7.1c0.2,4.2,3,5.6,6.3,6.9c2.4,1,4.4,3,6.5,4.6c-0.3,0.3-0.6,0.6-0.9,0.9H51.6
						c-0.3-0.5-0.6-0.9-0.9-1.4c2.4-1.5,5.1-2.7,7.3-4.5c2.1-1.8,4.4-4,5.2-6.5c1.2-3.6-1.9-5.3-4.8-6.6c-2.2-1.1-4.4-2.5-6.7-3.3
						c-1.6-0.6-3.4-0.5-5.2-0.6c-0.1,0.5-0.2,1-0.3,1.5c1.1,1,2.1,1.9,3.4,3.1c-2.9,0.5-6.8-3.7-7.7,2.4c2.1,0.8,4.1,1.7,7.3,3
						c-3.6,0.4-5.8,0.7-8.7,1.1c1.6,3.7,3,6.9,4.3,10.1c-0.2,0.2-0.5,0.3-0.7,0.5C41.9,84.7,39.7,82.3,36.9,79.4 M20,105.9
						C9.7,93,7.2,77.9,8.5,61.2c-9.3,17.6-9.2,44.4,9.9,62.9c-6.7-0.8-10.6-4.6-18.3-18.2C3.6,123,11.3,135.5,26.9,142
						c-0.2,0.4-0.4,0.8-0.7,1.2c-4.6-1.4-9.1-2.9-13.3-4.2c5.8,12.4,25,16.8,45.2,9.8c-3.7,4.9-6.8,6-24.9,8.7
						c10.1,4.1,19.6,4.2,29.2,1.5c2.1-0.6,4.7-0.5,6.8,0.1c9.3,2.5,18.4,2.5,27.4-1.4c-8.4-1.4-16.9-1.9-23.6-8.6
						c17.8,7.9,33,4.3,46.8-10.3c-5.4,1.7-9.9,3.1-14.4,4.5l-0.9-1.1c15.4-6.7,23.3-19,26.2-35c-3.9,7.8-8.7,14.6-18.9,18.2
						c18.7-19.4,21.2-40.4,11.7-63.4c0.7,16-1.7,31.1-11.9,44.1c9.3-26.1,9.9-51.2-6.6-74.5v34.2c-0.1,0.1-0.3,0.2-0.4,0.3
						c-1-3.7-2.3-7.3-3.1-11c-1.3-6.3-1.8-12.8-3.3-19.1c-2.5-10.7-8.5-19-18.5-24.3C85,20,87.4,29.1,87.3,38
						C80.6,26.1,73.4,13.7,65.8,0.3c-7.6,13.2-14.7,25.5-21.3,36.9c-1.1-5.4,0.4-11.2,7.7-26.4c-10.4,5.9-16.4,14.1-18.9,24.7
						C31.9,42,31.3,48.7,30,55.2c-0.8,3.8-2.1,7.4-3.5,12V31.9c-8.3,9.9-11.8,22.3-12.8,35.7C12.7,80.9,15.6,93.5,20,105.9"
                />
              </g>
              <g id="chin" transform="translate(54.086433, 41.950022)">
                <path
                  id="path124"
                  class="lionHover"
                  fill="#C29F00"
                  d="M11.9,0C9.7,3.5,7.8,6.4,5.7,9.7C5.2,8.8,4.9,8.2,4.6,7.5c-5,4.7-6,10.5-2.7,14.8
						c4.5,5.9,14.5,6.1,19.5,0.5c3.8-4.2,3.1-9.8-2.2-15.6c-0.3,0.9-0.5,1.7-0.8,3C16.1,6.6,14.1,3.4,11.9,0"
                />
              </g>
            </g>
          </g>
        </g>
      </g>
    </svg>